<?xml version="1.0" encoding="UTF-8"?>
<svg id="svg8" xmlns="http://www.w3.org/2000/svg" viewBox="0 0 146.59 146.59">
  <path d="M88.71,145.27h-30.82v-4.94c0-6.92-5.78-12.55-12.89-12.55-3.46,0-6.71,1.32-9.14,3.7l-3.46,3.39-21.87-21.45,3.59-3.53c2.41-2.37,3.74-5.51,3.74-8.84,0-6.92-5.79-12.55-12.9-12.55H.01v-30.43h4.95c7.11,0,12.89-5.63,12.89-12.55,0-3.34-1.33-6.47-3.74-8.84l-3.59-3.53,21.86-21.45,3.46,3.39c2.44,2.39,5.69,3.71,9.15,3.71,7.11,0,12.89-5.63,12.89-12.56V1.31h30.82v4.94c0,6.92,5.78,12.55,12.89,12.55,3.46,0,6.71-1.32,9.15-3.7l3.46-3.39,21.86,21.45-3.59,3.53c-2.41,2.37-3.74,5.51-3.74,8.84,0,6.92,5.78,12.55,12.89,12.55h4.94v30.43h-4.94c-7.11,0-12.89,5.63-12.89,12.55,0,3.34,1.33,6.47,3.74,8.84l3.59,3.53-21.87,21.45-3.46-3.39c-2.44-2.39-5.68-3.7-9.15-3.7-7.11,0-12.89,5.63-12.89,12.56v4.94ZM67.21,135.39h12.18c2.29-10,11.38-17.5,22.22-17.5,4.4,0,8.61,1.22,12.23,3.5l8.53-8.37c-2.28-3.55-3.5-7.67-3.5-11.97,0-10.7,7.64-19.67,17.83-21.9v-11.73c-10.19-2.23-17.83-11.2-17.83-21.9,0-4.3,1.22-8.42,3.5-11.97l-8.53-8.37c-3.62,2.28-7.83,3.5-12.23,3.5-10.83,0-19.92-7.49-22.22-17.49h-12.18c-2.29,10-11.38,17.5-22.22,17.5-4.4,0-8.61-1.22-12.23-3.5l-8.53,8.37c2.28,3.55,3.5,7.67,3.5,11.97,0,10.7-7.64,19.67-17.83,21.9v11.73c10.19,2.23,17.83,11.2,17.83,21.9,0,4.3-1.22,8.42-3.5,11.97l8.53,8.37c3.62-2.28,7.83-3.5,12.23-3.5,10.83,0,19.93,7.49,22.22,17.49ZM73.29,117.85l-39.27-22.24v-44.64l39.27-22.24,39.27,22.24v44.64l-39.27,22.24ZM43.9,89.86l29.39,16.64,29.39-16.64v-33.12l-29.39-16.64-29.39,16.64v33.12ZM107.62,92.73h0,0Z"/>
</svg>