<?xml version="1.0" encoding="UTF-8"?>
<svg id="svg8" xmlns="http://www.w3.org/2000/svg" viewBox="0 0 146.59 146.59">
  <path d="M130.93,37.29h-23.18v-6.56c0-8.02-6.52-14.54-14.54-14.54h-39.83c-8.02,0-14.54,6.52-14.54,14.54v6.56H15.66c-8.63,0-15.66,7.02-15.66,15.66v61.79c0,8.63,7.02,15.66,15.66,15.66h115.27c8.63,0,15.66-7.02,15.66-15.66v-61.79c0-8.63-7.02-15.66-15.66-15.66ZM48.6,30.74c0-2.64,2.14-4.78,4.78-4.78h39.83c2.64,0,4.78,2.14,4.78,4.78v6.56h-49.39v-6.56ZM15.66,47.05h115.27c3.25,0,5.9,2.65,5.9,5.9v26.01h-14.29v-7.94c0-2.69-2.18-4.88-4.88-4.88s-4.88,2.19-4.88,4.88v7.94H33.81v-7.6c0-2.69-2.18-4.88-4.88-4.88s-4.88,2.19-4.88,4.88v7.6h-14.29v-26.01c0-3.25,2.65-5.9,5.9-5.9ZM130.93,120.63H15.66c-3.25,0-5.9-2.65-5.9-5.9v-26.01h14.29v7.54c0,2.69,2.18,4.88,4.88,4.88s4.88-2.19,4.88-4.88v-7.54h78.96v7.21c0,2.69,2.18,4.88,4.88,4.88s4.88-2.19,4.88-4.88v-7.21h14.29v26.01c0,3.25-2.65,5.9-5.9,5.9Z"/>
</svg>