<?xml version="1.0" encoding="UTF-8"?>
<svg id="svg8" xmlns="http://www.w3.org/2000/svg" viewBox="0 0 146.59 146.59">
  <path d="M92.3,83.66c-3.16,8.23-8.86,12.35-17.09,12.35-3.84,0-7.12-.78-9.85-2.32l21.3-39.28c2.25,1.8,3.81,4.07,4.67,6.82l11.98-3.27c-1.93-5.93-5.3-10.42-10.09-13.48-.29-.18-.6-.34-.9-.52l5.62-10.37-5.82-3.16-5.94,10.95c-3.41-.98-7.26-1.49-11.58-1.49-6.94,0-12.81,1.28-17.6,3.85-4.79,2.56-8.42,6.3-10.87,11.22-2.46,4.91-3.69,10.93-3.69,18.06s1.28,13.11,3.85,18.15c1.94,3.81,4.54,6.93,7.81,9.38l-6.41,11.81,5.82,3.16,6.33-11.67c4.39,1.89,9.51,2.85,15.36,2.85,6.88,0,12.78-1.53,17.71-4.58,4.93-3.06,8.67-7.72,11.22-13.98l-11.84-4.47ZM58.32,85.59c-1.46-3.41-2.19-7.6-2.19-12.58,0-7.34,1.59-12.91,4.77-16.72,3.18-3.81,7.84-5.71,13.98-5.71,2.11,0,4.07.27,5.89.8l-20.48,37.76c-.76-1.06-1.42-2.24-1.97-3.54Z"/>
  <path d="M108.36,12.56H38.23L3.17,73.29l35.06,60.73h70.13l35.06-60.73L108.36,12.56ZM102.9,124.57h-59.21l-29.6-51.28,29.6-51.28h59.21l29.6,51.28-29.6,51.28Z"/>
</svg>