<?xml version="1.0" encoding="UTF-8"?>
<svg id="svg8" xmlns="http://www.w3.org/2000/svg" viewBox="0 0 146.59 146.59">
  <path d="M20.99,75.52c-10.65,0-19.32,8.67-19.32,19.32s8.67,19.32,19.32,19.32,19.32-8.67,19.32-19.32-8.67-19.32-19.32-19.32ZM20.99,105.4c-5.83,0-10.57-4.74-10.57-10.57s4.74-10.57,10.57-10.57,10.57,4.74,10.57,10.57-4.74,10.57-10.57,10.57Z"/>
  <path d="M126.17,75.52c-10.65,0-19.32,8.67-19.32,19.32s8.67,19.32,19.32,19.32,19.32-8.67,19.32-19.32-8.67-19.32-19.32-19.32ZM126.17,105.4c-5.83,0-10.57-4.74-10.57-10.57s4.74-10.57,10.57-10.57,10.57,4.74,10.57,10.57-4.74,10.57-10.57,10.57Z"/>
  <path d="M22.14,69.8h8.05v-37.38h-8.05C10.07,32.43.29,42.21.29,54.27v37.38c0-12.06,9.78-21.84,21.84-21.84Z"/>
  <rect x="39" y="32.43" width="29.89" height="37.38"/>
  <rect x="77.7" y="32.43" width="29.89" height="37.38"/>
  <path d="M124.45,32.43h-8.05v37.38h8.05c12.06,0,21.84,9.78,21.84,21.84v-37.38c0-12.06-9.78-21.84-21.84-21.84Z"/>
  <path d="M102.34,105.4h-58.09c-2.42,0-4.38,1.96-4.38,4.38s1.96,4.38,4.38,4.38h58.09c2.42,0,4.38-1.96,4.38-4.38s-1.96-4.38-4.38-4.38Z"/>
</svg>