<?xml version="1.0" encoding="UTF-8"?>
<svg id="svg8" xmlns="http://www.w3.org/2000/svg" viewBox="0 0 146.59 146.59">
  <path d="M14.6,120.95c-1.93,0-3.5-1.57-3.5-3.5V29.05c0-1.93,1.57-3.5,3.5-3.5s3.5,1.57,3.5,3.5v88.4c0,1.93-1.57,3.5-3.5,3.5Z"/>
  <path d="M38.08,121.04c-3.87,0-7-3.13-7-7V32.92c0-3.87,3.13-7,7-7s7,3.13,7,7v81.11c0,3.87-3.13,7-7,7Z"/>
  <path d="M61.56,120.95c-1.93,0-3.5-1.57-3.5-3.5V29.05c0-1.93,1.57-3.5,3.5-3.5s3.5,1.57,3.5,3.5v88.4c0,1.93-1.57,3.5-3.5,3.5Z"/>
  <path d="M85.03,120.95c-1.93,0-3.5-1.57-3.5-3.5V29.05c0-1.93,1.57-3.5,3.5-3.5s3.5,1.57,3.5,3.5v88.4c0,1.93-1.57,3.5-3.5,3.5Z"/>
  <path d="M108.51,120.89c-3.04,0-5.5-2.46-5.5-5.5V31.27c0-3.04,2.46-5.5,5.5-5.5s5.5,2.46,5.5,5.5v84.12c0,3.04-2.46,5.5-5.5,5.5Z"/>
  <path d="M131.98,120.95c-1.93,0-3.5-1.57-3.5-3.5V29.05c0-1.93,1.57-3.5,3.5-3.5s3.5,1.57,3.5,3.5v88.4c0,1.93-1.57,3.5-3.5,3.5Z"/>
</svg>