<svg id="frappe-symbols" aria-hidden="true" style="position: absolute; width: 0; height: 0; overflow: hidden;" class="d-block" xmlns="http://www.w3.org/2000/svg">
  <symbol id="icon-fleet" viewBox="0 0 146.59 146.59" xmlns="http://www.w3.org/2000/svg">
    <rect x="53.69" y="42.03" width="39.2" height="21.14"/>
    <path d="M130.83,104.36v-30.54c0-7.65-6.23-13.88-13.88-13.88h-3.8v-24.83c0-.13-.02-.25-.02-.37v-16.95l9.2-9.2-7.51-7.51-12.31,12.31v8.01c-1.13-.29-2.31-.46-3.53-.46h-51.37c-1.23,0-2.42.17-3.55.47v-8.02L31.75,1.09l-7.51,7.51,9.2,9.2v42.15h-3.8c-7.65,0-13.88,6.23-13.88,13.88v30.54c-3.84,2.06-6.46,6.1-6.46,10.76v1.36c0,4.65,2.62,8.7,6.46,10.76v6.37c0,6.56,5.34,11.9,11.9,11.9h9.04c6.56,0,11.9-5.34,11.9-11.9v-4.94h49.41v4.94c0,6.56,5.34,11.9,11.9,11.9h9.04c6.56,0,11.9-5.34,11.9-11.9v-6.37c3.84-2.06,6.46-6.1,6.46-10.76v-1.36c0-4.65-2.62-8.7-6.46-10.76ZM26.37,73.82c0-1.8,1.47-3.27,3.27-3.27h14.42v-35.45c0-1.96,1.59-3.55,3.55-3.55h51.37c1.9,0,3.44,1.5,3.53,3.37v5.74h.02v29.89h14.42c1.8,0,3.27,1.47,3.27,3.27v29.1h-20.26v-19.45c0-6.89-5.61-12.5-12.5-12.5h-28.32c-6.89,0-12.5,5.61-12.5,12.5v19.45h-20.26v-29.1ZM89.34,102.92h-32.09v-19.45c0-1.04.85-1.89,1.89-1.89h28.32c1.04,0,1.89.85,1.89,1.89v19.45ZM37.98,133.6c0,.71-.58,1.28-1.28,1.28h-9.04c-.71,0-1.28-.58-1.28-1.28v-4.94h11.6v4.94ZM48.59,118.05h-27.1c-.87,0-1.58-.71-1.58-1.58v-1.36c0-.87.71-1.58,1.58-1.58h103.61c.87,0,1.58.71,1.58,1.58v1.36c0,.87-.71,1.58-1.58,1.58H48.59ZM120.21,133.6c0,.71-.58,1.28-1.28,1.28h-9.04c-.71,0-1.28-.58-1.28-1.28v-4.94h11.6v4.94Z"/>
    <circle cx="36.07" cy="83.04" r="6.75"/>
    <circle cx="110.51" cy="83.04" r="6.75"/>
    <rect x="18.51" y="33.11" width="10.61" height="24.64"/>
    <rect x="117.46" y="33.11" width="10.61" height="24.64"/>
  </symbol>
</svg>